<?xml version="1.0" encoding="UTF-8" standalone="no"?>
<!-- Created with Inkscape (http://www.inkscape.org/) -->

<svg
   xmlns:dc="http://purl.org/dc/elements/1.1/"
   xmlns:cc="http://creativecommons.org/ns#"
   xmlns:rdf="http://www.w3.org/1999/02/22-rdf-syntax-ns#"
   xmlns:svg="http://www.w3.org/2000/svg"
   xmlns="http://www.w3.org/2000/svg"
   xmlns:sodipodi="http://sodipodi.sourceforge.net/DTD/sodipodi-0.dtd"
   xmlns:inkscape="http://www.inkscape.org/namespaces/inkscape"
   width="45mm"
   height="10.58333mm"
   viewBox="0 0 45 10.58333"
   id="svg2"
   version="1.1"
   inkscape:version="0.91+devel r14387 custom"
   sodipodi:docname="pagure_logo.svg"
   inkscape:export-filename="/home/rlerch/Source/fedoauth/ansible/roles/ipsilon/files/ui-fedora/fedora-authn-logo-white.png"
   inkscape:export-xdpi="192"
   inkscape:export-ydpi="192">
  <defs
     id="defs4">
    <clipPath
       clipPathUnits="userSpaceOnUse"
       id="clipPath4574">
      <circle
         style="color:#000000;clip-rule:nonzero;display:inline;overflow:visible;visibility:visible;opacity:1;isolation:auto;mix-blend-mode:normal;color-interpolation:sRGB;color-interpolation-filters:linearRGB;solid-color:#000000;solid-opacity:1;fill:#ce5c00;fill-opacity:1;fill-rule:nonzero;stroke:none;stroke-width:0.75063962;stroke-linecap:butt;stroke-linejoin:bevel;stroke-miterlimit:4;stroke-dasharray:none;stroke-dashoffset:0;stroke-opacity:1;marker:none;color-rendering:auto;image-rendering:auto;shape-rendering:auto;text-rendering:auto;enable-background:accumulate"
         id="circle4576"
         cx="93.498596"
         cy="-16.921354"
         r="5.5046906"
         transform="rotate(60)" />
    </clipPath>
  </defs>
  <sodipodi:namedview
     id="base"
     pagecolor="#ffffff"
     bordercolor="#666666"
     borderopacity="1.0"
     inkscape:pageopacity="0.0"
     inkscape:pageshadow="2"
     inkscape:zoom="2"
     inkscape:cx="-51.643535"
     inkscape:cy="8.904585"
     inkscape:document-units="mm"
     inkscape:current-layer="g4624"
     showgrid="false"
     fit-margin-top="0"
     fit-margin-left="0"
     fit-margin-right="0"
     fit-margin-bottom="0"
     inkscape:window-width="2560"
     inkscape:window-height="1311"
     inkscape:window-x="0"
     inkscape:window-y="55"
     inkscape:window-maximized="1"
     inkscape:snap-bbox="true"
     inkscape:bbox-nodes="true"
     inkscape:snap-page="true"
     inkscape:snap-global="false" />
  <metadata
     id="metadata7">
    <rdf:RDF>
      <cc:Work
         rdf:about="">
        <dc:format>image/svg+xml</dc:format>
        <dc:type
           rdf:resource="http://purl.org/dc/dcmitype/StillImage" />
        <dc:title></dc:title>
      </cc:Work>
    </rdf:RDF>
  </metadata>
  <g
     inkscape:label="Layer 1"
     inkscape:groupmode="layer"
     id="layer1"
     transform="translate(-48.767028,-31.073165)">
    <g
       id="g4595"
       transform="matrix(0.45619308,0,0,0.45619308,26.519847,-9.145808)">
      <g
         id="g4624"
         transform="matrix(0.92003825,0,0,0.92003825,3.8994993,8.9046582)">
        <text
           sodipodi:linespacing="125%"
           id="text4225"
           y="106.14349"
           x="82.744614"
           style="font-style:normal;font-weight:normal;font-size:11.86291027px;line-height:125%;font-family:Sans;letter-spacing:0px;word-spacing:0px;fill:#555753;fill-opacity:1;stroke:none;stroke-width:0.29657274px;stroke-linecap:butt;stroke-linejoin:miter;stroke-opacity:1"
           xml:space="preserve"><tspan
             style="font-style:normal;font-variant:normal;font-weight:normal;font-stretch:normal;font-family:Montserrat;-inkscape-font-specification:Montserrat;fill:#555753;fill-opacity:1;stroke-width:0.29657274px"
             y="106.14349"
             x="82.744614"
             id="tspan4227"
             sodipodi:role="line">PAGURE</tspan></text>
        <g
           transform="matrix(0.13021808,0,0,0.13021808,83.22229,87.323483)"
           id="g4488">
          <g
             transform="translate(-266.55899,-345.34488)"
             id="layer1-0">
            <path
               inkscape:connector-curvature="0"
               d="m 316.7736,397.581 c 0,0 0,0 -20.53889,0 0.3327,4.45245 3.92157,7.77609 8.70715,7.77609 3.38983,0 6.31456,-1.39616 8.64094,-3.65507 0.46553,-0.46679 0.99726,-0.59962 1.59519,-0.59962 0.79781,0 1.59561,0.39932 2.12692,1.06388 0.3327,0.46553 0.53216,0.99726 0.53216,1.52857 0,0.73118 -0.3327,1.52857 -0.93106,2.12734 -2.7919,2.99052 -7.51086,4.98503 -12.16403,4.98503 -8.44149,0 -15.22074,-6.77967 -15.22074,-15.22158 0,-8.44149 6.58022,-15.22074 15.02171,-15.22074 8.37529,0 14.62323,6.51317 14.62323,15.08749 0,1.26418 -1.12924,2.12861 -2.39258,2.12861 z m -12.23065,-11.76512 c -4.45329,0 -7.51085,2.92473 -8.17499,7.17731 10.03626,0 16.35083,0 16.35083,0 -0.59836,-4.05355 -3.78874,-7.17731 -8.17584,-7.17731 z"
               id="path11"
               style="fill:#3c6eb4" />
            <path
               inkscape:connector-curvature="0"
               d="m 375.46344,410.80807 c -8.44106,0 -15.22074,-6.77968 -15.22074,-15.22159 0,-8.44149 6.77968,-15.22074 15.22074,-15.22074 8.44234,0 15.22159,6.77925 15.22159,15.22074 -4.2e-4,8.44149 -6.77968,15.22159 -15.22159,15.22159 z m 0,-24.65992 c -5.31688,0 -8.77377,4.25427 -8.77377,9.43833 0,5.18364 3.45689,9.43833 8.77377,9.43833 5.31731,0 8.77504,-4.25469 8.77504,-9.43833 -4.2e-4,-5.18406 -3.45773,-9.43833 -8.77504,-9.43833 z"
               id="path13"
               style="fill:#3c6eb4" />
            <path
               inkscape:connector-curvature="0"
               d="m 412.66183,380.36574 c -4.45963,0 -7.40966,1.319 -10.01391,4.62956 l -0.24036,-1.53995 v 0 c -0.20198,-1.60743 -1.57326,-2.84926 -3.23382,-2.84926 -1.80139,0 -3.26206,1.459 -3.26206,3.26081 0,0.003 0,0.005 0,0.008 v 0 0.003 0 23.40712 c 0,1.79464 1.46194,3.25743 3.257,3.25743 1.79465,0 3.25744,-1.46279 3.25744,-3.25743 v -12.56209 c 0,-5.71621 4.98502,-8.57432 10.23613,-8.57432 1.59519,0 2.85726,-1.32953 2.85726,-2.92515 0,-1.59561 -1.26207,-2.85726 -2.85768,-2.85726 z"
               id="path15"
               style="fill:#3c6eb4" />
            <path
               inkscape:connector-curvature="0"
               d="m 447.02614,395.58648 c 0.0666,-8.17541 -5.78326,-15.22074 -15.222,-15.22074 -8.44192,0 -15.28779,6.77925 -15.28779,15.22074 0,8.44191 6.64684,15.22159 14.68985,15.22159 4.01434,0 7.62682,-2.06621 9.23846,-4.22518 l 0.79359,2.01434 v 0 c 0.42589,1.13177 1.5176,1.93717 2.7978,1.93717 1.65001,0 2.98756,-1.33671 2.99009,-2.98545 v 0 -7.80687 0 z m -15.222,9.43833 c -5.31773,0 -8.77419,-4.25469 -8.77419,-9.43833 0,-5.18406 3.45604,-9.43833 8.77419,-9.43833 5.3173,0 8.77419,4.25427 8.77419,9.43833 0,5.18364 -3.45689,9.43833 -8.77419,9.43833 z"
               id="path17"
               style="fill:#3c6eb4" />
            <path
               inkscape:connector-curvature="0"
               d="m 355.01479,368.3337 c 0,-1.7938 -1.46194,-3.18997 -3.25659,-3.18997 -1.79422,0 -3.25743,1.39659 -3.25743,3.18997 v 17.1499 c -1.66097,-3.05756 -5.25026,-5.11786 -9.50495,-5.11786 -8.64052,0 -14.42336,6.51318 -14.42336,15.22074 0,8.70757 5.98229,15.22159 14.42336,15.22159 3.76555,0 7.03057,-1.55429 8.98587,-4.25554 l 0.72317,1.83428 c 0.44782,1.25912 1.64917,2.16024 3.06051,2.16024 1.78621,0 3.24984,-1.45435 3.24984,-3.24815 0,-0.005 0,-0.009 0,-0.0139 v 0 -38.95128 h -4.2e-4 z m -15.22116,36.69111 c -5.31731,0 -8.70715,-4.25469 -8.70715,-9.43833 0,-5.18406 3.38984,-9.43833 8.70715,-9.43833 5.31773,0 8.70714,4.0544 8.70714,9.43833 0,5.38309 -3.38941,9.43833 -8.70714,9.43833 z"
               id="path19"
               style="fill:#3c6eb4" />
            <path
               inkscape:connector-curvature="0"
               d="m 287.21553,365.34023 c -0.59414,-0.0877 -1.19966,-0.13198 -1.80097,-0.13198 -6.73118,0 -12.20746,5.4767 -12.20746,12.20788 v 3.8132 h -3.98903 c -1.46237,0 -2.65908,1.19671 -2.65908,2.65781 0,1.46321 1.19671,2.93738 2.65908,2.93738 h 3.98819 v 20.46004 c 0,1.79464 1.46236,3.25743 3.25658,3.25743 1.79507,0 3.25744,-1.46279 3.25744,-3.25743 v -20.46004 h 4.40986 c 1.46194,0 2.65823,-1.47417 2.65823,-2.93738 0,-1.46152 -1.19629,-2.65823 -2.65823,-2.65823 h -4.40733 v -3.8132 c 0,-3.13852 2.55323,-6.11469 5.69175,-6.11469 0.28294,0 0.56757,0.0211 0.84672,0.062 1.78031,0.26355 3.4358,-0.54269 3.70019,-2.32342 0.2627,-1.77904 -0.96606,-3.43538 -2.74594,-3.69935 z"
               id="path21"
               style="fill:#3c6eb4" />
          </g>
          <path
             inkscape:connector-curvature="0"
             d="m 181.98344,61.675273 h 2.81558 v 0.37898 h -1.18152 v 2.94935 h -0.45254 v -2.94935 h -1.18152 v -0.37898 m 3.26144,0 h 0.67101 l 0.84937,2.26496 0.85381,-2.26496 h 0.67102 v 3.32833 h -0.43917 v -2.9226 l -0.85828,2.28279 h -0.45255 l -0.85827,-2.28279 v 2.9226 h -0.43694 v -3.32833"
             id="path2391"
             style="fill:#294172;enable-background:new" />
        </g>
        <g
           id="g5550"
           transform="rotate(-32.109643,65.130005,92.483217)">
          <g
             id="g5577"
             transform="translate(-3.4869455,-1.9908306)">
            <path
               transform="matrix(0.53395907,0.33507714,-0.33507714,0.53395907,54.685595,80.121722)"
               style="color:#000000;clip-rule:nonzero;display:inline;overflow:visible;visibility:visible;opacity:1;isolation:auto;mix-blend-mode:normal;color-interpolation:sRGB;color-interpolation-filters:linearRGB;solid-color:#000000;solid-opacity:1;fill:#b6b6b6;fill-opacity:1;fill-rule:nonzero;stroke:none;stroke-width:0.77837425;stroke-linecap:round;stroke-linejoin:miter;stroke-miterlimit:4;stroke-dasharray:none;stroke-dashoffset:0;stroke-opacity:1;color-rendering:auto;image-rendering:auto;shape-rendering:auto;text-rendering:auto;enable-background:accumulate"
               d="m 25.271484,7.5644531 c -2.419365,1.3016089 -4.924288,2.7136689 -6.192624,5.2812599 -1.403582,2.38088 -1.552376,5.229752 -0.816579,7.855236 0.313981,1.533937 1.429497,2.86151 2.270344,4.14272 1.535108,1.257428 3.027553,2.60013 5.087959,2.807605 2.151143,0.76906 4.562098,0.144639 6.436483,-1.062188 1.58465,-1.139094 3.027814,-3.025667 2.462309,-5.050666 -2.273916,-7.564855 -9.572594,-2.670813 -6.155128,0.15604 1.58157,-1.546962 2.760757,-1.597918 2.42654,0.417442 -0.189528,2.038895 -1.368026,0.953264 -1.967553,1.581563 -2.9442,-0.449647 -4.347584,-1.441153 -3.569916,-4.239949 0.451556,-2.596586 1.172393,-4.125196 3.765588,-4.502003 1.511442,-0.300009 2.745185,-0.07005 4.157553,0.466569 1.59869,0.94899 2.979733,2.947073 3.779368,4.661006 1.018143,0.647974 -0.194278,4.08326 1.370076,2.724499 1.489613,-1.007176 4.7402,-2.895719 5.867455,-4.327025 C 43.277452,16.346727 41.610751,12.853334 39.827052,11.287849 38.481429,9.5866177 36.406506,8.5710844 34.502258,7.6563879 32.140603,7.103256 29.720941,6.2429325 27.32189,7.1479948 Z"
               id="path5546"
               inkscape:connector-curvature="0"
               sodipodi:nodetypes="cccccccccccccccccccc" />
            <path
               inkscape:connector-curvature="0"
               id="path5559"
               d="m 72.29416,106.28894 c -1.478128,0.38759 -3.872069,0.33961 -5.18357,0.27351 -0.528269,1.01876 -0.500512,2.37914 0.332437,3.64196 0.780147,1.18279 2.685594,1.69795 4.034684,2.31241 -1.212021,-1.58997 -1.618278,-2.48974 -1.633317,-4.3115 2.021654,0.76273 2.808437,2.58944 4.212318,3.88473 0.170709,-1.482 -0.334767,-3.52495 -1.191751,-4.98504 -0.181028,-0.30843 -0.372016,-0.57729 -0.570801,-0.81607 z"
               style="color:#000000;clip-rule:nonzero;display:inline;overflow:visible;visibility:visible;opacity:1;isolation:auto;mix-blend-mode:normal;color-interpolation:sRGB;color-interpolation-filters:linearRGB;solid-color:#000000;solid-opacity:1;fill:#888a85;fill-opacity:1;fill-rule:nonzero;stroke:none;stroke-width:1.24725866;stroke-linecap:round;stroke-linejoin:miter;stroke-miterlimit:4;stroke-dasharray:none;stroke-dashoffset:0;stroke-opacity:1;color-rendering:auto;image-rendering:auto;shape-rendering:auto;text-rendering:auto;enable-background:accumulate" />
            <path
               style="fill:none;fill-rule:evenodd;stroke:#888a85;stroke-width:1.30184925;stroke-linecap:round;stroke-linejoin:miter;stroke-miterlimit:4;stroke-dasharray:none;stroke-opacity:1"
               d="m 63.150641,101.29946 c 0.173541,-0.19476 0.372467,0.20616 0.374054,0.3256 0.0082,0.61511 -0.783113,0.79258 -1.258605,0.62518 -1.066654,-0.37551 -1.299961,-1.76928 -0.871913,-2.724294 0.735874,-1.6418 2.75877,-1.976179 4.15323,-1.215089 2.096886,1.144489 2.460901,3.956923 1.297046,5.825233 -1.614278,2.59134 -5.257077,2.84546 -7.816061,1.04742 -3.362364,-2.36252 -3.971391,-7.110608 -1.837672,-10.348328 2.696955,-4.092392 8.399902,-4.654783 12.2875,-1.865518 3.667361,2.631248 5.120332,7.488526 3.748305,11.762766 -1.478319,1.07177 -7.030569,0.59572 -7.030569,0.59572"
               id="path5543"
               inkscape:connector-curvature="0"
               sodipodi:nodetypes="cccscsssscc" />
          </g>
        </g>
      </g>
    </g>
  </g>
</svg>
