<?xml version="1.0" encoding="UTF-8" standalone="no"?>
<!-- Created with Inkscape (http://www.inkscape.org/) -->

<svg
   xmlns:dc="http://purl.org/dc/elements/1.1/"
   xmlns:cc="http://creativecommons.org/ns#"
   xmlns:rdf="http://www.w3.org/1999/02/22-rdf-syntax-ns#"
   xmlns:svg="http://www.w3.org/2000/svg"
   xmlns="http://www.w3.org/2000/svg"
   xmlns:xlink="http://www.w3.org/1999/xlink"
   xmlns:sodipodi="http://sodipodi.sourceforge.net/DTD/sodipodi-0.dtd"
   xmlns:inkscape="http://www.inkscape.org/namespaces/inkscape"
   width="512"
   height="512"
   viewBox="0 0 512.00004 512"
   id="svg2"
   version="1.1"
   inkscape:version="0.91 r"
   sodipodi:docname="pragure_logo.001.svg">
  <defs
     id="defs4">
    <linearGradient
       id="linearGradient8031"
       inkscape:collect="always">
      <stop
         id="stop8033"
         offset="0"
         style="stop-color:#37589b;stop-opacity:1" />
      <stop
         id="stop8035"
         offset="1"
         style="stop-color:#6a85b6;stop-opacity:1" />
    </linearGradient>
    <linearGradient
       inkscape:collect="always"
       id="linearGradient5337">
      <stop
         style="stop-color:#e49421;stop-opacity:1"
         offset="0"
         id="stop5339" />
      <stop
         style="stop-color:#e8a545;stop-opacity:1"
         offset="1"
         id="stop5341" />
    </linearGradient>
    <clipPath
       clipPathUnits="userSpaceOnUse"
       id="clipPath5389">
      <circle
         r="210.67717"
         cy="2615.0066"
         cx="-887.8183"
         id="circle5391"
         style="opacity:1;fill:none;fill-opacity:1;stroke:#0fd908;stroke-width:13.66708755;stroke-linecap:round;stroke-linejoin:round;stroke-miterlimit:4;stroke-dasharray:none;stroke-dashoffset:0;stroke-opacity:1" />
    </clipPath>
    <radialGradient
       inkscape:collect="always"
       xlink:href="#linearGradient5337"
       id="radialGradient8029"
       cx="-945.87799"
       cy="254.13396"
       fx="-945.87799"
       fy="254.13396"
       r="174.27248"
       gradientTransform="matrix(1.2990109,0.0046197,-0.00356076,1.0012508,1608.4689,1208.6032)"
       gradientUnits="userSpaceOnUse" />
    <radialGradient
       inkscape:collect="always"
       xlink:href="#linearGradient8031"
       id="radialGradient8088"
       gradientUnits="userSpaceOnUse"
       gradientTransform="matrix(1.5915582,-0.008077,0.00551739,1.0871928,1676.2437,-279.67941)"
       cx="-819.41412"
       cy="1838.9745"
       fx="-819.41412"
       fy="1838.9745"
       r="242.27159" />
    <radialGradient
       inkscape:collect="always"
       xlink:href="#linearGradient8031"
       id="radialGradient8090"
       gradientUnits="userSpaceOnUse"
       gradientTransform="matrix(1.5915583,-0.008077,0.00551739,1.0871929,1675.623,-279.67949)"
       cx="-819.41412"
       cy="1838.9745"
       fx="-819.41412"
       fy="1838.9745"
       r="242.27159" />
    <radialGradient
       inkscape:collect="always"
       xlink:href="#linearGradient8031"
       id="radialGradient8092"
       gradientUnits="userSpaceOnUse"
       gradientTransform="matrix(1.5915583,-0.008077,0.00551739,1.0871929,1675.623,-279.67949)"
       cx="-819.41412"
       cy="1838.9745"
       fx="-819.41412"
       fy="1838.9745"
       r="242.27159" />
    <radialGradient
       inkscape:collect="always"
       xlink:href="#linearGradient8031"
       id="radialGradient8094"
       gradientUnits="userSpaceOnUse"
       gradientTransform="matrix(1.591558,-0.008077,0.00551739,1.0871928,1552.7646,-1539.3412)"
       cx="-819.41412"
       cy="1838.9745"
       fx="-819.41412"
       fy="1838.9745"
       r="242.27159" />
    <radialGradient
       inkscape:collect="always"
       xlink:href="#linearGradient8031"
       id="radialGradient8098"
       gradientUnits="userSpaceOnUse"
       gradientTransform="matrix(-1.5915583,-0.008077,-0.00551739,1.0871929,-917.90657,-279.67949)"
       cx="-819.41412"
       cy="1838.9745"
       fx="-819.41412"
       fy="1838.9745"
       r="242.27159" />
    <radialGradient
       inkscape:collect="always"
       xlink:href="#linearGradient8031"
       id="radialGradient8100"
       gradientUnits="userSpaceOnUse"
       gradientTransform="matrix(-1.5915583,-0.008077,-0.00551739,1.0871929,-917.90657,-279.67949)"
       cx="-819.41412"
       cy="1838.9745"
       fx="-819.41412"
       fy="1838.9745"
       r="242.27159" />
    <radialGradient
       inkscape:collect="always"
       xlink:href="#linearGradient8031"
       id="radialGradient8102"
       gradientUnits="userSpaceOnUse"
       gradientTransform="matrix(-1.591558,-0.008077,-0.00551739,1.0871928,-1040.7645,-1539.3412)"
       cx="-819.41412"
       cy="1838.9745"
       fx="-819.41412"
       fy="1838.9745"
       r="242.27159" />
  </defs>
  <sodipodi:namedview
     id="base"
     pagecolor="#ffffff"
     bordercolor="#666666"
     borderopacity="1.0"
     inkscape:pageopacity="0.0"
     inkscape:pageshadow="2"
     inkscape:zoom="1"
     inkscape:cx="337.12463"
     inkscape:cy="223.18311"
     inkscape:document-units="px"
     inkscape:current-layer="layer1"
     showgrid="false"
     inkscape:showpageshadow="false"
     inkscape:window-width="1920"
     inkscape:window-height="1017"
     inkscape:window-x="-4"
     inkscape:window-y="0"
     inkscape:window-maximized="1"
     inkscape:object-paths="true"
     inkscape:snap-bbox="true"
     inkscape:snap-bbox-midpoints="true"
     inkscape:object-nodes="true"
     inkscape:snap-object-midpoints="true"
     inkscape:snap-center="true"
     inkscape:snap-global="false"
     fit-margin-top="0"
     fit-margin-left="0"
     fit-margin-right="0"
     fit-margin-bottom="0"
     borderlayer="false"
     inkscape:snap-smooth-nodes="true"
     units="px">
    <inkscape:grid
       type="xygrid"
       id="grid4136"
       originx="-122.85818"
       originy="719.29978" />
  </sodipodi:namedview>
  <metadata
     id="metadata7">
    <rdf:RDF>
      <cc:Work
         rdf:about="">
        <dc:format>image/svg+xml</dc:format>
        <dc:type
           rdf:resource="http://purl.org/dc/dcmitype/StillImage" />
        <dc:title></dc:title>
      </cc:Work>
    </rdf:RDF>
  </metadata>
  <g
     inkscape:label="Layer 1"
     inkscape:groupmode="layer"
     id="layer1"
     transform="translate(-122.85817,-1259.662)"
     style="display:inline;opacity:1">
    <g
       id="g5055">
      <rect
         y="1544.6619"
         x="244.85815"
         height="111"
         width="264"
         id="rect4962"
         style="opacity:1;fill:#ffffff;fill-opacity:1;stroke:none;stroke-width:10;stroke-linecap:round;stroke-linejoin:round;stroke-miterlimit:4;stroke-dasharray:none;stroke-dashoffset:0;stroke-opacity:1" />
      <path
         sodipodi:nodetypes="cccccsccccc"
         id="path7795"
         d="m 378.85934,1260.6619 c -36.68054,0.1026 -72.04186,21.6116 -99.28322,60.3895 -29.76693,22.6852 -52.52765,54.9977 -65.1914,92.5495 -23.66091,31.4158 -36.3709,68.8469 -36.4061,107.2167 0.0242,12.7452 26.45476,25.4547 28.904,37.9303 24.76967,-59.8235 80.99979,-94.1681 171.97672,-94.1681 90.80231,0 146.926,34.2128 171.81241,93.8236 2.47502,-12.3577 28.9634,-24.9506 29.06603,-37.5858 -0.0826,-38.1208 -12.67523,-75.3078 -36.0909,-106.5797 -12.64865,-38.0348 -35.63862,-70.7545 -65.78129,-93.6211 -27.21113,-38.5196 -62.45757,-59.8637 -99.00625,-59.9549 z"
         style="opacity:1;fill:url(#radialGradient8029);fill-opacity:1;stroke:none;stroke-width:20;stroke-linecap:square;stroke-linejoin:round;stroke-miterlimit:4;stroke-dasharray:none;stroke-dashoffset:0;stroke-opacity:1"
         inkscape:connector-curvature="0" />
      <path
         inkscape:connector-curvature="0"
         id="ellipse7797"
         d="m 378.85817,1477.5357 c -91.86003,0 -166.32685,39.1992 -166.32685,114.0123 0,46.1797 28.3721,70.9984 71.69542,95.4514 26.86254,15.1621 59.47344,30.9801 94.63143,30.9801 32.39363,0 62.6239,-14.4749 88.18887,-27.5203 46.93079,-23.9482 78.13801,-50.4802 78.13798,-98.9112 -4e-5,-74.8131 -74.46678,-114.0123 -166.32685,-114.0123 z m -67.44869,72.6805 a 48.146039,48.146039 0 0 1 48.14671,48.1449 48.146039,48.146039 0 0 1 -48.14671,48.1467 48.146039,48.146039 0 0 1 -48.14672,-48.1467 48.146039,48.146039 0 0 1 48.14672,-48.1449 z m 134.89739,0 a 48.146039,48.146039 0 0 1 48.14671,48.1449 48.146039,48.146039 0 0 1 -48.14671,48.1467 48.146039,48.146039 0 0 1 -48.14489,-48.1467 48.146039,48.146039 0 0 1 48.14489,-48.1449 z"
         style="opacity:1;fill:url(#radialGradient8088);fill-opacity:1;stroke:none;stroke-width:20;stroke-linecap:square;stroke-linejoin:round;stroke-miterlimit:4;stroke-dasharray:none;stroke-dashoffset:0;stroke-opacity:1" />
      <path
         sodipodi:nodetypes="cssscc"
         inkscape:connector-curvature="0"
         id="path7803"
         d="m 260.73724,1615.9721 c 0,0 -40.3462,-13.8749 -70.38279,2.6577 -30.03668,16.5325 -50.13862,76.088 -32.38326,80.2515 17.75545,4.1637 30.63544,-44.5013 56.62227,-25.6928 37.15716,26.8932 60.63847,15.9421 60.63847,15.9421 z"
         style="opacity:1;fill:url(#radialGradient8090);fill-opacity:1;stroke:none;stroke-width:20;stroke-linecap:square;stroke-linejoin:round;stroke-miterlimit:4;stroke-dasharray:none;stroke-dashoffset:0;stroke-opacity:1" />
      <path
         style="opacity:1;fill:url(#radialGradient8092);fill-opacity:1;stroke:none;stroke-width:20;stroke-linecap:square;stroke-linejoin:round;stroke-miterlimit:4;stroke-dasharray:none;stroke-dashoffset:0;stroke-opacity:1"
         d="m 278.19894,1639.6104 c 0,0 -40.22247,2.9869 -60.15338,28.5466 -19.93088,25.5597 -15.19273,84.7915 1.78407,81.7895 16.97693,-3.0017 10.02463,-50.0803 39.6119,-43.4281 42.30522,9.5113 58.62188,-8.7557 58.62188,-8.7557 z"
         id="path7805"
         inkscape:connector-curvature="0"
         sodipodi:nodetypes="cssscc" />
      <path
         id="path7807"
         transform="translate(122.85815,1259.6619)"
         d="M 179.48047 393.60547 C 179.48047 393.60547 146.74137 412.0905 140.07617 441.55859 C 133.41099 471.02679 160.91785 519.10213 174.04492 509.83203 C 179.96817 505.64915 178.22754 495.82953 177.06055 485.75 C 190.05483 480.54984 191.07834 502.92683 199.27734 502.81641 C 207.55651 502.70503 204.46227 474.33501 192.75977 464.07031 C 190.40783 462.00735 187.74946 460.45957 185.00586 459.28516 C 186.49335 458.53803 188.21456 457.92743 190.2168 457.48242 C 229.6728 448.71332 236.18359 426.83008 236.18359 426.83008 L 179.48047 393.60547 z "
         style="opacity:1;fill:url(#radialGradient8094);fill-opacity:1;stroke:none;stroke-width:20;stroke-linecap:square;stroke-linejoin:round;stroke-miterlimit:4;stroke-dasharray:none;stroke-dashoffset:0;stroke-opacity:1" />
      <path
         style="opacity:1;fill:url(#radialGradient8098);fill-opacity:1;stroke:none;stroke-width:20;stroke-linecap:square;stroke-linejoin:round;stroke-miterlimit:4;stroke-dasharray:none;stroke-dashoffset:0;stroke-opacity:1"
         d="m 496.97917,1615.9721 c 0,0 40.3462,-13.8749 70.38279,2.6577 30.03668,16.5325 50.13862,76.088 32.38326,80.2515 -17.75545,4.1637 -30.63544,-44.5013 -56.62227,-25.6928 -37.15716,26.8932 -60.63847,15.9421 -60.63847,15.9421 z"
         id="path7881"
         inkscape:connector-curvature="0"
         sodipodi:nodetypes="cssscc" />
      <path
         sodipodi:nodetypes="cssscc"
         inkscape:connector-curvature="0"
         id="path7883"
         d="m 479.51747,1639.6104 c 0,0 40.22247,2.9869 60.15338,28.5466 19.93088,25.5597 15.19273,84.7915 -1.78407,81.7895 -16.97693,-3.0017 -10.02463,-50.0803 -39.6119,-43.4281 -42.30522,9.5113 -58.62188,-8.7557 -58.62188,-8.7557 z"
         style="opacity:1;fill:url(#radialGradient8100);fill-opacity:1;stroke:none;stroke-width:20;stroke-linecap:square;stroke-linejoin:round;stroke-miterlimit:4;stroke-dasharray:none;stroke-dashoffset:0;stroke-opacity:1" />
      <path
         id="path7885"
         transform="translate(122.85815,1259.6619)"
         d="M 332.51953 393.60547 L 275.81641 426.83008 C 275.81641 426.83008 282.3272 448.71332 321.7832 457.48242 C 323.79833 457.93029 325.52948 458.54508 327.02344 459.29883 C 324.28993 460.47181 321.64049 462.01465 319.29688 464.07031 C 307.59436 474.33501 304.50013 502.70503 312.7793 502.81641 C 320.96627 502.92666 322.00127 480.61685 334.94141 485.72852 C 333.77442 495.81556 332.02763 505.64618 337.95508 509.83203 C 351.08215 519.10213 378.58901 471.02679 371.92383 441.55859 C 365.25863 412.0905 332.51953 393.60547 332.51953 393.60547 z "
         style="opacity:1;fill:url(#radialGradient8102);fill-opacity:1;stroke:none;stroke-width:20;stroke-linecap:square;stroke-linejoin:round;stroke-miterlimit:4;stroke-dasharray:none;stroke-dashoffset:0;stroke-opacity:1" />
      <circle
         style="opacity:1;fill:#3c6eb4;fill-opacity:1;stroke:none;stroke-width:20;stroke-linecap:square;stroke-linejoin:round;stroke-miterlimit:4;stroke-dasharray:none;stroke-dashoffset:0;stroke-opacity:1"
         id="circle7927"
         cx="311.4093"
         cy="1598.3619"
         r="14.279369" />
      <circle
         r="14.279369"
         cy="1598.3619"
         cx="446.30725"
         id="circle7991"
         style="opacity:1;fill:#3c6eb4;fill-opacity:1;stroke:none;stroke-width:20;stroke-linecap:square;stroke-linejoin:round;stroke-miterlimit:4;stroke-dasharray:none;stroke-dashoffset:0;stroke-opacity:1" />
      <path
         sodipodi:nodetypes="czc"
         inkscape:connector-curvature="0"
         id="path8205"
         d="m 241.34729,1448.2484 c 0,0 43.10569,-30.9724 137.53678,-30.9724 94.43108,0 137.80033,31.6408 137.80033,31.6408"
         style="opacity:1;fill:none;fill-opacity:1;stroke:#ffffff;stroke-width:11.52675533;stroke-linecap:round;stroke-linejoin:round;stroke-miterlimit:4;stroke-dasharray:none;stroke-dashoffset:0;stroke-opacity:1" />
      <path
         style="opacity:1;fill:none;fill-opacity:1;stroke:#ffffff;stroke-width:5.53606653;stroke-linecap:round;stroke-linejoin:round;stroke-miterlimit:4;stroke-dasharray:none;stroke-dashoffset:0;stroke-opacity:1"
         d="m 304.13848,1310.8607 c 0,0 23.445,-13.1357 74.80561,-13.1357 51.36064,0 74.94896,13.4193 74.94896,13.4193"
         id="path8207"
         inkscape:connector-curvature="0"
         sodipodi:nodetypes="czc" />
      <path
         style="opacity:1;fill:none;fill-opacity:1;stroke:#ffffff;stroke-width:8.87977505;stroke-linecap:round;stroke-linejoin:round;stroke-miterlimit:4;stroke-dasharray:none;stroke-dashoffset:0;stroke-opacity:1"
         d="m 264.25413,1373.6872 c 0,0 35.93328,-22.0497 114.65184,-22.0497 78.71856,0 114.87153,22.5255 114.87153,22.5255"
         id="path8209"
         inkscape:connector-curvature="0"
         sodipodi:nodetypes="czc" />
    </g>
  </g>
  <g
     inkscape:groupmode="layer"
     id="layer2"
     inkscape:label="Layer 2"
     style="display:inline"
     transform="translate(0,4.1330898e-5)" />
</svg>
